Format: Matroska
Format version: Version 2
File size: 5.50 GiB
Duration: 1h 47mn
Overall bit rate: 7 353 Kbps
Encoded date: UTC 2013-04-21 15:42:44


Video
ID: 1
Format: AVC
Format/Info: Advanced Video Codec
Format profile: High@L3.1
Format settings, CABAC: Yes
Format settings, ReFrames: 4 frames
Codec ID: V_MPEG4/ISO/AVC
Duration: 1h 47mn
Bit rate: 4 333 Kbps
Width: 1 280 pixels
Height: 536 pixels
Display aspect ratio: 2.40:1
Frame rate mode: Constant
Frame rate: 24.000 fps
Color space: YUV
Chroma subsampling: 4:2:0
Bit depth: 8 bits
Scan type: Progressive
Bits/(Pixel*Frame): 0.263
Stream size: 3.13 GiB (57%)
Writing library: x264 core 116 r2044 392e762
Default: No
Forced: No

Audio #1
ID: 2
Format: DTS
Format/Info: Digital Theater Systems
Mode: 16
Format settings, Endianness: Big
Codec ID: A_DTS
Duration: 1h 47mn
Bit rate mode: Constant
Bit rate: 1 509 Kbps
Channel(s): 6 channels
Channel positions: Front: L C R, Side: L R, LFE
Sampling rate: 48.0 KHz
Bit depth: 16 bits
Compression mode: Lossy
Delay relative to video: 11ms
Stream size: 1.13 GiB (21%)
Title: Russian @ DTS 5.1 @ 1509 kbps
Language: Russian
Default: Yes
Forced: No

Audio #2
ID: 3
Format: DTS
Format/Info: Digital Theater Systems
Mode: 16
Format settings, Endianness: Big
Codec ID: A_DTS
Duration: 1h 47mn
Bit rate mode: Constant
Bit rate: 1 509 Kbps
Channel(s): 6 channels
Channel positions: Front: L C R, Side: L R, LFE
Sampling rate: 48.0 KHz
Bit depth: 16 bits
Compression mode: Lossy
Stream size: 1.13 GiB (21%)
Title: English @ DTS 5.1 @ 1509 kbps
Language: English
Default: No
Forced: No

Screens:
 
http://i.imgur.com/P0sw6MK.jpg 
http://i.imgur.com/sgafYgj.jpg 
http://i.imgur.com/7E18Uvj.png 
http://i.imgur.com/FqhO0RA.jpg
